<svg width="20" height="20" viewBox="0 0 20 20" fill="none" xmlns="http://www.w3.org/2000/svg">
<path fill-rule="evenodd" clip-rule="evenodd" d="M6.01172 10.2968C6.01172 10.6282 6.28035 10.8968 6.61172 10.8968H11.4117C11.7431 10.8968 12.0117 10.6282 12.0117 10.2968C12.0117 9.96547 11.7431 9.69683 11.4117 9.69683H6.61172C6.28035 9.69683 6.01172 9.96547 6.01172 10.2968ZM6.01172 7.09683C6.01172 7.4282 6.28035 7.69683 6.61172 7.69683H9.01174C9.3431 7.69683 9.61174 7.4282 9.61174 7.09683C9.61174 6.76546 9.3431 6.49683 9.01174 6.49683H6.61172C6.28035 6.49683 6.01172 6.76546 6.01172 7.09683Z" fill="white"/>
<path fill-rule="evenodd" clip-rule="evenodd" d="M17.4876 8.9491C17.7902 8.8139 18.145 8.9495 18.2803 9.25206C18.5617 9.88182 18.7372 10.5694 18.7845 11.2918C18.8205 11.8422 18.8205 12.4114 18.7845 12.9619C18.7116 14.0758 18.2212 15.0739 17.684 15.8753C17.5615 16.117 17.6143 16.5149 17.9085 17.0652C17.9138 17.075 17.9191 17.0849 17.9244 17.0949C18.0226 17.2785 18.1249 17.4696 18.1849 17.6352C18.2492 17.8126 18.3269 18.1247 18.1418 18.4361C17.974 18.7184 17.7079 18.8172 17.5087 18.8553C17.3466 18.8861 17.1508 18.8908 16.9788 18.8948C16.9679 18.895 16.957 18.8953 16.9463 18.8955C16.0117 18.918 15.3467 18.6508 14.8193 18.267C14.7474 18.2147 14.6928 18.175 14.6496 18.1445C14.5826 18.1701 14.4956 18.2054 14.3773 18.2535C14.0184 18.3994 13.6127 18.4862 13.24 18.5106C12.3024 18.5721 11.3226 18.5723 10.3831 18.5106C9.08756 18.4257 7.95816 17.9284 7.02889 17.159C6.77366 16.9477 6.73806 16.5694 6.94939 16.3142C7.16072 16.0589 7.53895 16.0233 7.79419 16.2347C8.54556 16.8568 9.43868 17.2461 10.4616 17.3132C11.3488 17.3714 12.2761 17.3713 13.1615 17.3132C13.4165 17.2965 13.6951 17.2355 13.9255 17.1418L13.94 17.1359C14.0915 17.0744 14.2266 17.0194 14.334 16.9821L14.3376 16.9809C14.4188 16.9527 14.6035 16.8885 14.7988 16.9123C14.9879 16.9352 15.1398 17.0303 15.2129 17.077C15.2994 17.1323 15.4028 17.2075 15.5123 17.2872L15.5254 17.2968C15.8452 17.5294 16.246 17.7058 16.8852 17.6965C16.8741 17.6757 16.8625 17.6538 16.8503 17.631C16.5289 17.0301 16.1824 16.1005 16.6461 15.272C16.6543 15.2574 16.663 15.2433 16.6724 15.2294C17.1584 14.5092 17.533 13.7095 17.5871 12.8835C17.6197 12.3853 17.6197 11.8685 17.5871 11.3702C17.5492 10.7921 17.409 10.2436 17.1847 9.74166C17.0495 9.43918 17.1851 9.0843 17.4876 8.9491ZM17.2876 17.6757L17.2891 17.6753L17.2876 17.6757Z" fill="white"/>
<path fill-rule="evenodd" clip-rule="evenodd" d="M10.4479 2.94336C9.50375 2.88118 8.51695 2.88131 7.57474 2.94336C5.03294 3.11076 3.0044 5.14584 2.83742 7.70558C2.80263 8.23886 2.80263 8.79198 2.83742 9.32526C2.89558 10.2169 3.298 11.0771 3.81626 11.8481C3.82555 11.8619 3.83425 11.8761 3.84237 11.8907C4.32365 12.754 3.96592 13.7269 3.62503 14.3669C3.60033 14.4133 3.57771 14.4557 3.55694 14.495C3.56623 14.4953 3.57572 14.4955 3.58541 14.4957C4.29257 14.5128 4.73476 14.32 5.08649 14.063L5.0999 14.0532C5.21671 13.9678 5.32571 13.8882 5.41663 13.8299C5.49409 13.7802 5.64946 13.683 5.84166 13.6597C6.04092 13.6353 6.23061 13.7014 6.31689 13.7315L6.31967 13.7325C6.43282 13.7719 6.57565 13.8301 6.73713 13.8961L6.75193 13.9021C7.00057 14.0036 7.30028 14.0694 7.57474 14.0875C8.51695 14.1495 9.50375 14.1497 10.4479 14.0875C12.9897 13.9201 15.0182 11.885 15.1853 9.32526C15.22 8.79198 15.22 8.23886 15.1853 7.70558C15.0182 5.14584 12.9897 3.11076 10.4479 2.94336ZM7.49589 1.74596C8.49055 1.68045 9.53007 1.68032 10.5268 1.74596C13.6738 1.9532 16.1768 4.4712 16.3827 7.62747C16.4209 8.21278 16.4209 8.81806 16.3827 9.40334C16.1768 12.5597 13.6738 15.0777 10.5268 15.2849C9.53007 15.3505 8.49055 15.3504 7.49589 15.2849C7.10337 15.259 6.67606 15.1672 6.29857 15.0132C6.16262 14.9577 6.06492 14.918 5.99093 14.8898C5.94211 14.9241 5.8794 14.9698 5.79437 15.032C5.24035 15.4367 4.54148 15.7191 3.55647 15.6954C3.54536 15.6951 3.53415 15.6949 3.52285 15.6946C3.33918 15.6903 3.13388 15.6854 2.96469 15.653C2.75787 15.6133 2.48729 15.5114 2.31712 15.224C2.1301 14.9081 2.20773 14.5909 2.27465 14.4053C2.33729 14.2316 2.44467 14.0301 2.54967 13.8332C2.55509 13.823 2.56051 13.8129 2.56591 13.8027C2.87993 13.2132 2.9455 12.7702 2.8037 12.4927C2.23441 11.6403 1.71685 10.5821 1.63997 9.40334C1.60178 8.81806 1.60178 8.21278 1.63997 7.62747C1.84585 4.4712 4.34881 1.9532 7.49589 1.74596Z" fill="white"/>
</svg>
