<svg width="18" height="18" viewBox="0 0 18 18" fill="none" xmlns="http://www.w3.org/2000/svg">
<g clip-path="url(#clip0_194_45214)">
<path d="M2.07572 14.0393C1.47424 14.0393 0.886628 13.8858 0.354081 13.5867C0.0800768 13.4456 -0.0260495 13.0926 0.13764 12.827C0.681504 11.9579 0.877896 10.8956 0.628886 9.89655C0.370788 8.86081 -0.00265894 7.9885 1.42716e-05 6.89204C0.00928139 3.04525 3.21112 -0.073315 7.05399 0.00131202C10.7657 0.0760727 13.8247 3.19624 13.8248 6.90897C13.8248 11.7579 8.74314 15.1622 4.25692 13.2897C3.63856 13.7751 2.86133 14.0393 2.07572 14.0393ZM1.34486 12.8554C2.18995 13.1179 3.14041 12.9082 3.79209 12.2782C3.95266 12.1229 4.19285 12.0838 4.39432 12.1802C8.23514 14.0165 12.7555 11.1382 12.7554 6.90897C12.7554 3.75307 10.1881 1.13391 7.03247 1.07037C3.78042 1.00577 1.07714 3.63959 1.0693 6.89462C1.06676 7.93606 1.47309 8.76836 1.69514 9.75491C1.92909 10.7946 1.80586 11.894 1.34486 12.8554Z" fill="#18B791"/>
<path d="M15.9235 18C15.138 18 14.3607 17.7358 13.7424 17.2505C11.3566 18.2462 8.51861 17.7928 6.5624 16.1034C6.33892 15.9104 6.31424 15.5728 6.5072 15.3493C6.7002 15.1259 7.03778 15.1011 7.26126 15.2941C8.99626 16.7925 11.5372 17.1295 13.605 16.141C13.8064 16.0445 14.0465 16.0837 14.2072 16.2389C14.8588 16.8689 15.8093 17.0787 16.6544 16.8161C16.1106 15.6818 16.0353 14.3823 16.4567 13.1793C16.4605 13.1685 16.4646 13.1578 16.4691 13.1472C16.7769 12.4217 16.9319 11.6506 16.93 10.8554C16.9266 9.45335 16.4603 8.15645 15.5812 7.10476C15.3919 6.87816 15.422 6.54103 15.6486 6.35167C15.8751 6.16228 16.2123 6.19248 16.4017 6.41904C17.428 7.64698 17.9954 9.22154 17.9993 10.8528C18.0016 11.7871 17.8203 12.6939 17.4605 13.5482C17.0826 14.6421 17.2564 15.8134 17.8616 16.7877C18.0254 17.0533 17.9192 17.4064 17.6451 17.5476C17.1127 17.8465 16.5249 18 15.9235 18Z" fill="#18B791"/>
<path d="M6.91202 7.78116C7.37924 7.78116 7.758 7.4026 7.758 6.93562C7.758 6.46865 7.37924 6.09009 6.91202 6.09009C6.4448 6.09009 6.06604 6.46865 6.06604 6.93562C6.06604 7.4026 6.4448 7.78116 6.91202 7.78116Z" fill="#18B791"/>
<path d="M3.79557 7.78116C4.26279 7.78116 4.64155 7.4026 4.64155 6.93562C4.64155 6.46865 4.26279 6.09009 3.79557 6.09009C3.32834 6.09009 2.94958 6.46865 2.94958 6.93562C2.94958 7.4026 3.32834 7.78116 3.79557 7.78116Z" fill="#18B791"/>
<path d="M10.0292 7.78116C10.4964 7.78116 10.8752 7.4026 10.8752 6.93562C10.8752 6.46865 10.4964 6.09009 10.0292 6.09009C9.56199 6.09009 9.18323 6.46865 9.18323 6.93562C9.18323 7.4026 9.56199 7.78116 10.0292 7.78116Z" fill="#18B791"/>
</g>
<defs>
<clipPath id="clip0_194_45214">
<rect width="18" height="18" fill="white"/>
</clipPath>
</defs>
</svg>
