<svg width="17" height="17" viewBox="0 0 17 17" fill="none" xmlns="http://www.w3.org/2000/svg">
<path d="M0.75 8.625L2.064 7.47525C2.39335 7.1873 2.81981 7.03525 3.25704 7.04987C3.69427 7.06449 4.10962 7.24469 4.419 7.554L7.6365 10.7715C7.88618 11.0211 8.21591 11.1747 8.56766 11.2051C8.91941 11.2356 9.27063 11.141 9.5595 10.938L9.78375 10.7805C10.2004 10.4878 10.7041 10.3452 11.2124 10.3758C11.7206 10.4065 12.2035 10.6086 12.582 10.9492L15 13.125M10.5 3.375H13.125M13.125 3.375H15.75M13.125 3.375V6M13.125 3.375V0.75" stroke="#818181" stroke-width="1.5" stroke-linecap="round"/>
<path d="M15.75 8.25C15.75 11.7855 15.75 13.5532 14.6512 14.6512C13.554 15.75 11.7855 15.75 8.25 15.75C4.7145 15.75 2.94675 15.75 1.848 14.6512C0.75 13.554 0.75 11.7855 0.75 8.25C0.75 7.404 0.75 6.6585 0.765 6M8.25 0.75C4.7145 0.75 2.94675 0.75 1.848 1.848C1.53 2.16675 1.3035 2.54175 1.143 3" stroke="#818181" stroke-width="1.5" stroke-linecap="round"/>
</svg>
