<svg width="21" height="21" viewBox="0 0 21 21" fill="none" xmlns="http://www.w3.org/2000/svg">
<g clip-path="url(#clip0_187_20277)">
<path d="M18.5122 15.8479C17.963 15.3583 17.4823 14.7971 17.0829 14.1794C16.6468 13.3267 16.3854 12.3954 16.3141 11.4404V8.62731C16.3179 7.12717 15.7737 5.67728 14.7839 4.55007C13.794 3.42285 12.4266 2.69589 10.9386 2.50578V1.77119C10.9386 1.56957 10.8585 1.37621 10.7159 1.23365C10.5733 1.09108 10.38 1.01099 10.1783 1.01099C9.97672 1.01099 9.78336 1.09108 9.64079 1.23365C9.49823 1.37621 9.41813 1.56957 9.41813 1.77119V2.51717C7.94342 2.72099 6.59253 3.45234 5.61568 4.57577C4.63884 5.6992 4.10222 7.13858 4.10522 8.62731V11.4404C4.0339 12.3954 3.77254 13.3267 3.33647 14.1794C2.94405 14.7957 2.47102 15.3569 1.92994 15.8479C1.8692 15.9012 1.82052 15.9669 1.78713 16.0405C1.75375 16.1142 1.73643 16.1941 1.73633 16.2749V17.0494C1.73633 17.2004 1.79632 17.3453 1.90311 17.452C2.00991 17.5588 2.15475 17.6188 2.30577 17.6188H18.1363C18.2874 17.6188 18.4322 17.5588 18.539 17.452C18.6458 17.3453 18.7058 17.2004 18.7058 17.0494V16.2749C18.7057 16.1941 18.6884 16.1142 18.655 16.0405C18.6216 15.9669 18.5729 15.9012 18.5122 15.8479ZM2.92077 16.4799C3.45059 15.9681 3.91707 15.3946 4.31022 14.7716C4.85951 13.7418 5.18 12.6055 5.2498 11.4404V8.62731C5.22722 7.95994 5.33916 7.29485 5.57896 6.67164C5.81877 6.04844 6.18153 5.47986 6.64565 4.99977C7.10977 4.51969 7.66575 4.1379 8.28049 3.87716C8.89523 3.61641 9.55615 3.48204 10.2239 3.48204C10.8916 3.48204 11.5526 3.61641 12.1673 3.87716C12.782 4.1379 13.338 4.51969 13.8021 4.99977C14.2663 5.47986 14.629 6.04844 14.8688 6.67164C15.1086 7.29485 15.2206 7.95994 15.198 8.62731V11.4404C15.2678 12.6055 15.5883 13.7418 16.1376 14.7716C16.5307 15.3946 16.9972 15.9681 17.527 16.4799H2.92077Z" fill="white"/>
<path d="M10.2497 19.5195C10.6085 19.5113 10.9527 19.3764 11.2216 19.1388C11.4904 18.9012 11.6666 18.5762 11.7189 18.2212H8.72363C8.77743 18.5858 8.96184 18.9185 9.24257 19.1573C9.52329 19.3961 9.88121 19.5249 10.2497 19.5195Z" fill="white"/>
</g>
<defs>
<clipPath id="clip0_187_20277">
<rect width="20.5" height="20.5" fill="white"/>
</clipPath>
</defs>
</svg>
