<svg width="243" height="169" viewBox="0 0 243 169" fill="none" xmlns="http://www.w3.org/2000/svg">
<g clip-path="url(#clip0_187_19984)">
<path d="M74.5932 99.6964L75.07 100.918C76.3132 104.085 78.1502 105.668 80.5811 105.668C82.0612 105.668 83.164 105.254 83.8924 104.423C84.6208 103.595 84.9835 102.589 84.9835 101.414C84.9835 100.3 84.6735 99.4018 84.0533 98.7224C83.4332 98.043 82.4064 97.2528 80.9789 96.3489L80.2652 95.894C80.2388 95.894 80.0341 95.7598 79.6509 95.4886C79.2677 95.2175 78.8581 94.9288 78.4223 94.6284C77.9864 94.3281 77.4891 93.9636 76.9363 93.5437C76.3805 93.1209 75.93 92.7301 75.5878 92.3686C73.897 90.6482 73.0487 88.432 73.0487 85.7173C73.0487 82.7634 73.9994 80.3665 75.9037 78.5236C77.808 76.6836 80.1862 75.7622 83.0412 75.7622C84.1762 75.7622 85.3931 75.9751 86.6889 76.395C87.4027 76.637 87.7976 76.7565 87.8795 76.7565C87.9058 76.7565 88.1954 76.637 88.7512 76.395C89.0145 76.2463 89.345 76.1675 89.7428 76.1675C90.6672 76.1675 91.4336 76.9519 92.0421 78.5207C92.6505 80.0895 92.9547 81.7341 92.9547 83.4516C92.9547 85.1691 92.3316 85.9389 91.0914 85.9389C90.6409 85.9389 90.2401 85.796 89.8832 85.5102C89.5264 85.2245 89.2894 84.9679 89.1695 84.7404C89.0496 84.513 88.8448 84.131 88.5552 83.5857C87.233 81.0226 85.6475 79.7396 83.7959 79.7396C82.658 79.7396 81.7336 80.1391 81.0199 80.938C80.3061 81.737 79.9492 82.8305 79.9492 84.2185C79.9492 85.3936 80.2593 86.3442 80.8824 87.0674C81.5025 87.7905 82.7253 88.6653 84.5506 89.6917L85.3433 90.1437C87.8268 91.5609 89.4796 92.7826 90.2986 93.809C91.5418 95.4099 92.162 97.3519 92.162 99.6439C92.162 102.42 91.1294 104.863 89.07 106.972C87.0078 109.083 84.1264 110.138 80.4261 110.138C78.6797 110.138 77.0299 109.844 75.4707 109.255C73.9116 108.669 72.762 107.966 72.0219 107.152C70.9367 106.039 70.3955 104.003 70.3955 101.046C70.3955 99.7518 70.6149 98.8303 71.0508 98.285C71.4866 97.7427 72.0102 97.4715 72.6187 97.4715C72.7503 97.4715 72.8761 97.4861 72.996 97.5152C73.113 97.5444 73.2271 97.591 73.3324 97.6523C73.4377 97.7135 73.5313 97.7718 73.6103 97.8331C73.6893 97.8943 73.7683 97.9847 73.8473 98.1043C73.9262 98.2238 73.9847 98.3171 74.0257 98.3754C74.0666 98.4367 74.1251 98.5504 74.2041 98.7166C74.2831 98.8828 74.3299 98.9878 74.3416 99.0344C74.3533 99.0782 74.4001 99.1919 74.482 99.3727C74.561 99.5535 74.599 99.6614 74.599 99.6905L74.5932 99.6964Z" fill="#0271F8"/>
<path d="M102.549 100.691H101.993C102.046 101.898 102.271 102.892 102.666 103.677C103.275 104.884 104.293 105.488 105.72 105.488C106.566 105.488 107.624 105.065 108.891 104.219C109.154 104.038 109.467 103.782 109.824 103.449C110.181 103.117 110.485 102.854 110.737 102.656C110.988 102.461 111.193 102.362 111.351 102.362C111.67 102.362 111.992 102.551 112.322 102.927C112.653 103.304 112.817 103.703 112.817 104.126C112.817 104.82 112.393 105.558 111.547 106.342C108.745 108.724 105.849 109.917 102.862 109.917C100.376 109.917 98.4129 109.118 96.9737 107.52C95.5316 105.922 94.812 103.735 94.812 100.959C94.812 98.8479 95.2098 96.7688 96.0026 94.716C96.7953 92.6661 97.8659 90.9311 99.2145 89.514C100.405 88.3097 101.797 87.3503 103.398 86.6417C104.998 85.9332 106.615 85.5803 108.256 85.5803C110.371 85.5803 111.936 86.1314 112.954 87.2308C113.972 88.333 114.481 89.6947 114.481 91.3248C114.481 93.7392 113.431 95.9028 111.328 97.8186C109.227 99.7344 106.299 100.691 102.543 100.691H102.549ZM106.475 89.1553C105.524 89.1553 104.623 89.8201 103.778 91.144C103.354 91.8088 102.97 92.6748 102.628 93.745C102.283 94.8152 102.113 95.6987 102.113 96.3927C102.113 96.9671 102.482 97.2529 103.222 97.2529C104.439 97.2529 105.553 96.6493 106.571 95.4421C107.589 94.2378 108.098 92.7886 108.098 91.1002C108.098 89.8055 107.557 89.1553 106.472 89.1553H106.475Z" fill="#0271F8"/>
<path d="M117.974 91.2809L117.459 91.0534C117.433 91.0534 117.374 91.0301 117.281 90.9834C117.187 90.9397 117.123 90.9076 117.082 90.893C117.041 90.8785 116.982 90.8551 116.903 90.826C116.824 90.7968 116.757 90.756 116.704 90.7123C116.652 90.6685 116.599 90.6219 116.547 90.5781C116.494 90.5315 116.453 90.4732 116.43 90.3973C116.403 90.3215 116.377 90.2399 116.351 90.1495C116.324 90.0591 116.31 89.9687 116.31 89.8783C116.31 89.3651 116.5 88.9277 116.886 88.5661C117.269 88.2045 117.831 87.8284 118.571 87.4347C120.633 86.35 122.046 85.8076 122.812 85.8076C123.234 85.8076 123.593 86.1255 123.883 86.7582C124.173 87.3327 124.424 88.2687 124.638 89.5634C124.717 89.9862 124.769 90.1961 124.796 90.1961C124.822 90.1961 124.927 90.0766 125.112 89.8346C125.615 89.1114 126.051 88.5399 126.419 88.1141C127.501 86.8778 128.812 86.2596 130.345 86.2596C130.582 86.2596 130.822 86.2742 131.058 86.3063C131.295 86.3354 131.608 86.4345 131.992 86.6008C132.375 86.767 132.697 86.9857 132.963 87.2568C133.226 87.528 133.466 87.9508 133.677 88.5224C133.887 89.0968 133.992 89.7762 133.992 90.5577C133.992 91.9749 133.709 93.045 133.141 93.7711C132.571 94.4942 131.813 94.8558 130.862 94.8558C130.096 94.8558 129.514 94.5846 129.116 94.0423C128.958 93.8323 128.8 93.5291 128.639 93.1383C128.481 92.7476 128.376 92.5056 128.323 92.4152C128.113 92.0244 127.809 91.8291 127.411 91.8291C126.802 91.8291 126.302 92.2052 125.904 92.9605C125.533 93.6836 125.229 94.7479 124.992 96.1505C124.755 97.5531 124.488 99.8829 124.199 103.14L124.041 104.86C124.041 104.951 124.02 105.237 123.982 105.721C123.941 106.202 123.915 106.528 123.903 106.692C123.889 106.858 123.851 107.115 123.783 107.462C123.719 107.808 123.626 108.071 123.506 108.252C123.386 108.433 123.248 108.599 123.09 108.75C122.745 109.054 122.131 109.325 121.247 109.564C120.361 109.803 119.521 109.925 118.729 109.925C118.226 109.925 117.851 109.841 117.6 109.678C117.348 109.514 117.202 109.336 117.164 109.159C117.126 108.978 117.105 108.736 117.105 108.435C117.105 107.774 117.383 105.901 117.939 102.825L118.097 101.965C118.758 98.1946 119.089 95.4798 119.089 93.8236C119.089 92.9809 119.024 92.3977 118.89 92.0828C118.758 91.7649 118.454 91.5025 117.977 91.2896L117.974 91.2809Z" fill="#0271F8"/>
<path d="M144.304 90.7386L143.312 97.4774C143.049 99.2882 142.915 100.659 142.915 101.595C142.915 102.44 143.093 103.172 143.45 103.79C143.807 104.409 144.395 104.718 145.214 104.718C146.164 104.718 147.092 104.304 147.99 103.473C148.888 102.644 149.602 101.595 150.131 100.329C150.792 98.6729 151.123 96.8767 151.123 94.9463C151.123 93.1355 150.818 91.2343 150.21 89.2457C149.973 88.4321 149.853 87.951 149.853 87.7993C149.853 86.5309 150.739 85.8981 152.509 85.8981C152.983 85.8981 153.36 85.9419 153.638 86.0323C153.916 86.1227 154.215 86.321 154.531 86.6213C154.846 86.9216 155.078 87.4436 155.224 88.1813C155.367 88.9191 155.443 89.8609 155.443 91.0069C155.443 95.1096 154.808 98.6234 153.539 101.548C152.348 104.324 150.763 106.403 148.78 107.791C146.796 109.179 144.655 109.873 142.356 109.873C141.984 109.873 141.61 109.853 141.227 109.806C140.844 109.762 140.329 109.611 139.679 109.354C139.033 109.097 138.471 108.759 137.994 108.336C137.518 107.914 137.102 107.26 136.745 106.368C136.388 105.479 136.21 104.429 136.21 103.225C136.21 102.14 136.383 100.554 136.725 98.4746C137.067 96.2119 137.24 94.6431 137.24 93.7712C137.24 93.1064 137.202 92.6252 137.123 92.322C137.044 92.0216 136.856 91.7796 136.567 91.5988C136.383 91.5084 136.169 91.418 135.932 91.3277C135.906 91.3277 135.786 91.2897 135.575 91.2139C135.362 91.1381 135.224 91.0856 135.16 91.0565C135.093 91.0273 134.987 90.9719 134.844 90.899C134.698 90.8232 134.598 90.7415 134.546 90.6511C134.493 90.5608 134.44 90.447 134.388 90.31C134.335 90.1758 134.309 90.0155 134.309 89.8347C134.309 89.3535 134.534 88.9016 134.981 88.4788C135.432 88.0559 135.932 87.741 136.488 87.5282C139.159 86.2597 141.206 85.627 142.634 85.627C143.93 85.627 144.576 86.3239 144.576 87.7089C144.576 88.7645 144.482 89.7764 144.298 90.7386H144.304Z" fill="#0271F8"/>
<path d="M166.667 89.7442L166.032 94.3135C165.424 98.7458 165.12 101.551 165.12 102.726C165.12 103.181 165.193 103.49 165.339 103.653C165.485 103.82 165.743 103.901 166.111 103.901C166.164 103.901 166.249 103.895 166.369 103.881C166.489 103.866 166.573 103.857 166.626 103.857C167.55 103.857 168.013 104.234 168.013 104.989C168.013 105.925 167.366 106.843 166.07 107.75C165.251 108.325 164.254 108.829 163.078 109.264C161.902 109.701 160.837 109.92 159.886 109.92C158.511 109.92 157.824 109.24 157.824 107.884C157.824 107.552 157.856 107.161 157.924 106.709C157.991 106.257 158.081 105.706 158.201 105.059C158.318 104.411 158.406 103.922 158.459 103.589L158.933 100.694C159.462 97.2849 159.725 94.9317 159.725 93.6341C159.725 92.7914 159.62 92.2169 159.41 91.9166C159.252 91.7358 158.906 91.5404 158.38 91.3276C158.354 91.3276 158.234 91.2897 158.023 91.2138C157.809 91.138 157.672 91.0855 157.608 91.0564C157.54 91.0272 157.435 90.9718 157.292 90.8989C157.145 90.8231 157.046 90.7415 156.993 90.6511C156.941 90.5607 156.888 90.4469 156.835 90.3099C156.783 90.1758 156.756 90.0154 156.756 89.8346C156.756 88.9306 157.681 88.0704 159.532 87.2569C162.016 86.1401 164.014 85.5831 165.52 85.5831C166.497 85.5831 166.989 86.1692 166.989 87.3473C166.989 87.5601 166.974 87.7701 166.948 87.9801C166.921 88.1929 166.88 88.4612 166.828 88.7936C166.775 89.126 166.723 89.4409 166.67 89.7442H166.667ZM167.977 79.066C167.977 80.1507 167.568 81.0955 166.749 81.8945C165.93 82.6934 164.83 83.0929 163.458 83.0929C162.32 83.0929 161.457 82.7926 160.86 82.189C160.267 81.5854 159.968 80.8476 159.968 79.9728C159.968 78.7977 160.43 77.8092 161.358 77.0102C162.282 76.2113 163.394 75.8118 164.69 75.8118C165.798 75.8118 166.626 76.1296 167.167 76.7624C167.708 77.3951 167.98 78.1649 167.98 79.0689L167.977 79.066Z" fill="#0271F8"/>
<path d="M169.165 100.828C169.165 98.8363 169.51 96.9001 170.198 95.0164C170.885 93.1327 171.824 91.4939 173.012 90.1088C174.308 88.6013 175.794 87.4699 177.473 86.7176C179.152 85.9623 180.758 85.5862 182.29 85.5862C184.087 85.5862 185.549 86.0906 186.672 87.1025C187.796 88.1143 188.357 89.4761 188.357 91.1965C188.357 92.4328 188.065 93.4359 187.486 94.2057C186.904 94.9756 186.058 95.3605 184.949 95.3605C184.078 95.3605 183.428 95.0893 183.007 94.5469C182.583 94.0045 182.372 93.3251 182.372 92.5116C182.372 92.3308 182.393 92.0596 182.431 91.698C182.472 91.3364 182.489 91.0653 182.489 90.8845C182.489 89.7385 182.054 89.1641 181.182 89.1641C180.018 89.1641 178.915 90.0768 177.87 91.9021C176.826 93.7275 176.303 96.3577 176.303 99.7956C176.303 103.595 177.557 105.496 180.07 105.496C180.995 105.496 182.054 105.074 183.241 104.228C183.692 103.928 183.955 103.732 184.034 103.642C184.116 103.551 184.285 103.385 184.552 103.143C185.134 102.63 185.529 102.373 185.739 102.373C186.032 102.373 186.339 102.563 186.672 102.939C187.003 103.315 187.167 103.732 187.167 104.184C187.167 104.878 186.746 105.601 185.897 106.357C183.177 108.739 180.281 109.931 177.215 109.931C174.702 109.931 172.734 109.124 171.306 107.511C169.879 105.899 169.165 103.674 169.165 100.84V100.828Z" fill="#0271F8"/>
<path d="M197.478 100.691H196.923C196.975 101.898 197.2 102.892 197.598 103.677C198.204 104.884 199.225 105.488 200.649 105.488C201.495 105.488 202.554 105.065 203.823 104.219C204.086 104.038 204.399 103.782 204.753 103.449C205.11 103.117 205.414 102.854 205.666 102.656C205.918 102.461 206.122 102.362 206.28 102.362C206.596 102.362 206.921 102.551 207.252 102.927C207.582 103.304 207.746 103.703 207.746 104.126C207.746 104.82 207.322 105.558 206.476 106.342C203.674 108.724 200.778 109.917 197.791 109.917C195.305 109.917 193.345 109.118 191.903 107.52C190.464 105.922 189.741 103.735 189.741 100.959C189.741 98.8479 190.139 96.7688 190.932 94.716C191.725 92.6661 192.795 90.9311 194.144 89.514C195.334 88.3097 196.727 87.3503 198.33 86.6417C199.93 85.9332 201.547 85.5803 203.185 85.5803C205.3 85.5803 206.868 86.1314 207.883 87.2308C208.901 88.333 209.41 89.6947 209.41 91.3248C209.41 93.7392 208.36 95.9028 206.26 97.8186C204.16 99.7344 201.231 100.691 197.475 100.691H197.478ZM201.404 89.1553C200.453 89.1553 199.552 89.8201 198.707 91.144C198.283 91.8088 197.9 92.6748 197.557 93.745C197.212 94.8152 197.043 95.6987 197.043 96.3927C197.043 96.9671 197.411 97.2529 198.154 97.2529C199.371 97.2529 200.485 96.6493 201.506 95.4421C202.524 94.2378 203.033 92.7886 203.033 91.1002C203.033 89.8055 202.489 89.1553 201.407 89.1553H201.404Z" fill="#0271F8"/>
<path d="M221.48 79.5413L219.657 94.2902C219.075 98.7604 218.785 101.586 218.785 102.761C218.785 103.184 218.85 103.478 218.984 103.645C219.116 103.811 219.37 103.892 219.745 103.892C219.8 103.892 219.879 103.887 219.979 103.869C220.078 103.855 220.157 103.846 220.213 103.846C221.208 103.846 221.705 104.225 221.705 104.98C221.705 106.129 220.778 107.237 218.929 108.31C217.08 109.38 215.296 109.92 213.576 109.92C212.306 109.92 211.671 109.24 211.671 107.884C211.671 107.371 211.844 106.138 212.186 104.175L212.856 98.947C213.043 97.4861 213.365 94.9551 213.827 91.351C214.289 87.7468 214.52 85.3266 214.52 84.0902C214.52 83.3962 214.485 82.883 214.421 82.5535C214.357 82.2211 214.178 81.9645 213.886 81.7837C213.622 81.6642 213.371 81.5563 213.134 81.4688C213.081 81.4396 212.994 81.3988 212.877 81.3551C212.76 81.3113 212.666 81.2792 212.599 81.2647C212.534 81.2501 212.455 81.2122 212.362 81.1509C212.268 81.0897 212.189 81.0431 212.125 81.0139C212.06 80.9847 211.993 80.9323 211.929 80.8564C211.861 80.7806 211.809 80.7048 211.771 80.629C211.73 80.5532 211.698 80.4715 211.671 80.3811C211.645 80.2907 211.633 80.1858 211.633 80.0633C211.633 79.3401 212.148 78.6607 213.181 78.028C214.237 77.3952 215.518 76.8528 217.027 76.4009C218.534 75.9489 219.669 75.7214 220.435 75.7214C221.363 75.7214 221.825 76.3804 221.825 77.6985C221.825 77.8792 221.711 78.4945 221.482 79.5413H221.48Z" fill="#0271F8"/>
<path d="M236.498 105.893C237.211 104.444 237.817 102.75 238.32 100.802C238.823 98.8567 239.075 97.1159 239.075 95.5763C239.075 94.2816 238.639 92.5904 237.767 90.5113C237.264 89.3041 237.012 88.5051 237.012 88.1115C237.012 87.4175 237.284 86.8605 237.826 86.4377C238.367 86.0149 238.996 85.8049 239.709 85.8049C241.903 85.8049 243 88.0065 243 92.4096C243 97.4775 241.742 102.543 239.233 107.61C238.253 109.57 237.197 111.273 236.062 112.722C234.924 114.168 233.885 115.256 232.949 115.979C232.01 116.702 231.03 117.283 230.015 117.72C228.997 118.157 228.205 118.42 227.637 118.513C227.067 118.604 226.508 118.647 225.952 118.647C224.153 118.647 222.755 118.134 221.749 117.111C220.745 116.084 220.242 114.804 220.242 113.267C220.242 112.031 220.541 111.072 221.134 110.395C221.728 109.716 222.398 109.378 223.135 109.378C223.872 109.378 224.463 109.655 224.981 110.214C225.496 110.771 225.753 111.532 225.753 112.5C225.753 112.649 225.733 112.891 225.695 113.224C225.654 113.556 225.636 113.798 225.636 113.947C225.636 114.76 226.019 115.169 226.786 115.169C227.95 115.169 228.974 114.617 229.857 113.518C230.744 112.416 231.185 111.188 231.185 109.829C231.185 107.538 230.036 103.286 227.737 97.0722C227.023 95.2031 226.441 93.9142 225.99 93.2056C225.54 92.4971 224.999 92.1442 224.364 92.1442C224.259 92.1442 224.127 92.1588 223.969 92.188C223.811 92.2171 223.676 92.2317 223.571 92.2317C222.805 92.2317 222.421 91.8847 222.421 91.1907C222.421 90.106 223.188 88.9454 224.721 87.7091C226.227 86.4727 227.64 85.8545 228.965 85.8545C230.29 85.8545 231.607 87.919 233.011 92.0509C234.175 95.55 235.336 100.163 236.501 105.893H236.498Z" fill="#0271F8"/>
<path d="M54.283 105.986L54.1367 106.138C54.0695 106.202 54.0051 106.266 53.9349 106.327L53.8998 106.368L38.206 122.006C36.6498 123.558 34.6139 124.333 32.5721 124.33C30.5361 124.333 28.5002 123.558 26.9411 122.006L6.30957 101.44L6.88291 100.492C9.27573 96.553 12.628 93.2084 16.5829 90.8231L17.5628 90.2312L30.4104 103.044C31.0305 103.575 31.7969 103.837 32.5692 103.837C33.3414 103.837 34.1663 103.554 34.7953 102.986L35.038 102.744C35.6143 102.114 35.8922 101.323 35.8922 100.527C35.8922 99.9413 35.7342 99.3464 35.4154 98.8216C35.2896 98.6087 35.1346 98.4046 34.9503 98.218C34.9474 98.2092 34.9327 98.2005 34.9298 98.1976L27.0698 90.3624C27.9035 90.619 28.7839 90.7531 29.6878 90.7531C32.0631 90.7531 34.3009 89.8317 35.98 88.1521L36.1292 88.0034C38.5863 85.554 39.303 82.0053 38.2821 78.9231L54.283 94.7771C57.3896 97.8739 57.3896 102.892 54.283 105.986Z" fill="#19B792"/>
<path d="M30.1121 66.2446C29.53 66.8744 29.258 67.6588 29.258 68.4636C29.258 69.2684 29.5681 70.1403 30.2145 70.7789C30.2145 70.7876 30.2233 70.7964 30.2262 70.7993C30.2292 70.8022 30.235 70.811 30.2438 70.811L35.4594 76.1209C38.5601 79.2206 38.5601 84.236 35.4594 87.3328L35.3102 87.4815C32.4874 90.2954 28.0645 90.5491 24.9433 88.2367C24.9433 88.2367 10.8848 74.2197 10.876 74.211C7.87471 71.2192 7.88056 65.9851 10.9052 62.9758C13.064 60.8209 15.2228 58.6719 17.3816 56.517C20.339 53.5748 23.2906 50.6326 26.2421 47.6845C27.9855 45.9466 30.1004 44.6694 32.622 44.6694C32.7478 44.6694 32.8765 44.6723 33.0052 44.6811C34.8598 44.7482 36.8606 45.6696 38.212 46.976L58.7909 67.4984L58.1766 68.5074C55.7838 72.4468 52.4344 75.7914 48.4825 78.1767L47.5669 78.7307L34.8042 66.0026C34.1723 65.431 33.3767 65.154 32.5781 65.154C31.7795 65.154 30.9897 65.431 30.3549 66.0026L30.118 66.2446H30.1121Z" fill="#0271F8"/>
<path d="M46.8501 81.2939C46.5225 81.2268 46.3704 80.9732 46.3353 80.7603C46.3002 80.5445 46.3587 80.2529 46.6454 80.0838L48.0612 79.2323L48.8305 78.7658C52.879 76.3222 56.3103 72.9018 58.7587 68.869L59.2823 68.0001L60.0896 66.6733C60.2359 66.4371 60.4611 66.3555 60.6542 66.3555C60.6952 66.3555 60.7303 66.3584 60.7683 66.3642C60.9818 66.3992 61.2363 66.5538 61.3036 66.8774L65.0391 84.1661C65.0888 84.3907 65.0215 84.6093 64.8606 84.7726C64.6998 84.933 64.4774 84.9972 64.2551 84.9505L46.8501 81.291V81.2939Z" fill="#3E5774"/>
<path d="M0.0147589 84.8337C-0.0349697 84.6121 0.0352353 84.3905 0.196122 84.2272C0.357008 84.0668 0.576399 84.0026 0.80164 84.0493L18.2037 87.7088C18.5313 87.7759 18.6864 88.0296 18.7244 88.2424C18.7595 88.4582 18.6951 88.7498 18.4143 88.9219L17.0629 89.7325L16.2233 90.234C12.1778 92.6776 8.74651 96.098 6.29518 100.134L5.81252 100.939L4.97006 102.327C4.79747 102.609 4.50495 102.674 4.29141 102.636C4.07787 102.601 3.82338 102.446 3.75025 102.122L0.0147589 84.8337Z" fill="#E99023"/>
</g>
<defs>
<clipPath id="clip0_187_19984">
<rect width="243" height="169" fill="white"/>
</clipPath>
</defs>
</svg>
