<svg width="375" height="580" viewBox="0 0 375 580" fill="none" xmlns="http://www.w3.org/2000/svg">
<path d="M349.235 446.438L348.17 447.542C347.68 448.009 347.212 448.476 346.701 448.922L346.445 449.219L232.181 563.079C220.851 574.374 206.027 580.021 191.161 580C176.338 580.021 161.514 574.374 150.163 563.079L-0.0522461 413.339L4.12217 406.439C21.5439 377.757 45.9515 353.405 74.7464 336.038L81.8812 331.729L175.422 425.016C179.937 428.88 185.517 430.791 191.14 430.791C196.763 430.791 202.769 428.731 207.348 424.591L209.116 422.829C213.311 418.244 215.335 412.49 215.335 406.694C215.335 402.427 214.184 398.096 211.863 394.274C210.947 392.724 209.818 391.238 208.477 389.879C208.455 389.816 208.349 389.752 208.328 389.731L151.1 332.684C157.17 334.552 163.58 335.529 170.161 335.529C187.455 335.529 203.748 328.82 215.974 316.591L217.06 315.508C234.95 297.675 240.168 271.837 232.735 249.396L349.235 364.827C371.854 387.374 371.854 423.912 349.235 446.438Z" fill="#19B792" fill-opacity="0.1"/>
<path d="M173.25 157.085C169.011 161.671 167.031 167.382 167.031 173.242C167.031 179.102 169.288 185.45 173.995 190.099C173.995 190.163 174.059 190.227 174.08 190.248C174.102 190.269 174.144 190.333 174.208 190.333L212.183 228.994C234.758 251.562 234.758 288.079 212.183 310.626L211.096 311.708C190.544 332.196 158.341 334.043 135.616 317.207C135.616 317.207 33.2579 215.151 33.194 215.088C11.3423 193.305 11.3849 155.196 33.407 133.286C49.1249 117.597 64.8429 101.95 80.5608 86.2601C102.093 64.8384 123.583 43.4167 145.073 21.9525C157.766 9.29901 173.165 0 191.523 0C192.439 0 193.376 0.0212164 194.314 0.0849083C207.816 0.573213 222.384 7.28212 232.224 16.7934L382.056 166.215L377.583 173.561C360.161 202.243 335.775 226.595 307.001 243.961L300.335 247.995L207.412 155.323C202.811 151.162 197.018 149.145 191.204 149.145C185.39 149.145 179.639 151.162 175.018 155.323L173.292 157.085H173.25Z" fill="#0271F8" fill-opacity="0.1"/>
<path d="M295.117 266.657C292.732 266.169 291.624 264.322 291.369 262.772C291.113 261.201 291.539 259.078 293.626 257.846L303.935 251.647L309.536 248.25C339.012 230.459 363.995 205.555 381.821 176.193L385.634 169.866L391.512 160.206C392.577 158.487 394.217 157.892 395.622 157.892C395.921 157.892 396.176 157.914 396.453 157.956C398.008 158.211 399.861 159.336 400.351 161.693L427.548 287.569C427.91 289.204 427.42 290.796 426.249 291.985C425.078 293.153 423.459 293.62 421.84 293.28L295.117 266.636V266.657Z" fill="#3E5774" fill-opacity="0.1"/>
<path d="M-45.8854 292.431C-46.2475 290.817 -45.7363 289.204 -44.565 288.015C-43.3936 286.847 -41.7962 286.38 -40.1563 286.72L86.5456 313.364C88.931 313.853 90.0598 315.7 90.3367 317.25C90.5923 318.821 90.1237 320.944 88.0791 322.196L78.2394 328.098L72.1269 331.75C42.6717 349.541 17.6891 374.445 -0.158592 403.828L-3.67276 409.688L-9.8066 419.794C-11.0632 421.853 -13.193 422.32 -14.7477 422.044C-16.3025 421.789 -18.1554 420.664 -18.6879 418.307L-45.8854 292.431Z" fill="#E99023" fill-opacity="0.1"/>
</svg>
